<svg width="50" height="50" viewBox="0 0 50 50" fill="none" xmlns="http://www.w3.org/2000/svg">
<path d="M33.3333 43.75V39.5833C33.3333 37.3732 32.4553 35.2536 30.8925 33.6908C29.3297 32.128 27.2101 31.25 25 31.25H12.5C10.2898 31.25 8.17021 32.128 6.6074 33.6908C5.0446 35.2536 4.16663 37.3732 4.16663 39.5833V43.75" stroke="#203477" stroke-width="2" stroke-linecap="round" stroke-linejoin="round"/>
<path d="M18.75 22.9167C23.3523 22.9167 27.0833 19.1857 27.0833 14.5833C27.0833 9.98096 23.3523 6.25 18.75 6.25C14.1476 6.25 10.4166 9.98096 10.4166 14.5833C10.4166 19.1857 14.1476 22.9167 18.75 22.9167Z" stroke="#203477" stroke-width="2" stroke-linecap="round" stroke-linejoin="round"/>
<path d="M45.8334 43.7502V39.5835C45.832 37.7371 45.2174 35.9434 44.0862 34.4842C42.955 33.0249 41.3711 31.9826 39.5834 31.521" stroke="#203477" stroke-width="2" stroke-linecap="round" stroke-linejoin="round"/>
<path d="M33.3334 6.521C35.1259 6.97996 36.7147 8.02246 37.8493 9.48414C38.9839 10.9458 39.5997 12.7436 39.5997 14.5939C39.5997 16.4443 38.9839 18.242 37.8493 19.7037C36.7147 21.1654 35.1259 22.2079 33.3334 22.6668" stroke="#203477" stroke-width="2" stroke-linecap="round" stroke-linejoin="round"/>
</svg>
