<svg width="50" height="50" viewBox="0 0 50 50" fill="none" xmlns="http://www.w3.org/2000/svg">
<path d="M20.8334 4.1665V19.3957" stroke="#203477" stroke-width="2" stroke-linecap="round" stroke-linejoin="round"/>
<path d="M29.1666 19.3752V4.146" stroke="#203477" stroke-width="2" stroke-linecap="round" stroke-linejoin="round"/>
<path d="M17.7084 4.1665H32.2917" stroke="#203477" stroke-width="2" stroke-linecap="round" stroke-linejoin="round"/>
<path d="M29.1666 19.375C32.236 20.3676 34.8503 22.4233 36.5387 25.1721C38.2271 27.9209 38.8788 31.1822 38.3764 34.3688C37.8739 37.5553 36.2504 40.4579 33.7981 42.5538C31.3459 44.6497 28.2259 45.8014 24.9999 45.8014C21.774 45.8014 18.654 44.6497 16.2018 42.5538C13.7495 40.4579 12.126 37.5553 11.6235 34.3688C11.1211 31.1822 11.7728 27.9209 13.4612 25.1721C15.1496 22.4233 17.7639 20.3676 20.8333 19.375" stroke="#203477" stroke-width="2" stroke-linecap="round" stroke-linejoin="round"/>
<path d="M11.5 33.3335H38.5" stroke="#203477" stroke-width="2" stroke-linecap="round" stroke-linejoin="round"/>
</svg>
