<svg width="50" height="50" viewBox="0 0 50 50" fill="none" xmlns="http://www.w3.org/2000/svg">
<path d="M41.6667 27.0831C41.6667 37.4998 34.375 42.7081 25.7084 45.729C25.2545 45.8828 24.7616 45.8754 24.3125 45.7081C15.625 42.7081 8.33337 37.4998 8.33337 27.0831V12.4998C8.33337 11.9473 8.55287 11.4174 8.94357 11.0267C9.33427 10.636 9.86417 10.4165 10.4167 10.4165C14.5834 10.4165 19.7917 7.91646 23.4167 4.7498C23.8581 4.37271 24.4195 4.16553 25 4.16553C25.5806 4.16553 26.142 4.37271 26.5834 4.7498C30.2292 7.9373 35.4167 10.4165 39.5834 10.4165C40.1359 10.4165 40.6658 10.636 41.0565 11.0267C41.4472 11.4174 41.6667 11.9473 41.6667 12.4998V27.0831Z" stroke="#203477" stroke-width="2" stroke-linecap="round" stroke-linejoin="round"/>
<path d="M18.75 25.0002L22.9167 29.1668L31.25 20.8335" stroke="#203477" stroke-width="2" stroke-linecap="round" stroke-linejoin="round"/>
</svg>
