<svg width="50" height="50" viewBox="0 0 50 50" fill="none" xmlns="http://www.w3.org/2000/svg">
<path d="M29.1667 8.33317V30.2915C30.7554 31.2087 31.997 32.6245 32.699 34.3194C33.401 36.0142 33.5242 37.8933 33.0494 39.6652C32.5746 41.4371 31.5284 43.0029 30.073 44.1197C28.6177 45.2364 26.8345 45.8417 25 45.8417C23.1656 45.8417 21.3824 45.2364 19.927 44.1197C18.4716 43.0029 17.4254 41.4371 16.9506 39.6652C16.4759 37.8933 16.599 36.0142 17.301 34.3194C18.003 32.6245 19.2447 31.2087 20.8334 30.2915V8.33317C20.8334 7.2281 21.2723 6.16829 22.0537 5.38689C22.8351 4.60549 23.895 4.1665 25 4.1665C26.1051 4.1665 27.1649 4.60549 27.9463 5.38689C28.7277 6.16829 29.1667 7.2281 29.1667 8.33317Z" stroke="#203477" stroke-width="2" stroke-linecap="round" stroke-linejoin="round"/>
</svg>
